<svg version="1.1" viewBox="0.0 0.0 461.6981627296588 126.9028871391076" fill="none" stroke="none" stroke-linecap="square" stroke-miterlimit="10" xmlns:xlink="http://www.w3.org/1999/xlink" xmlns="http://www.w3.org/2000/svg"><clipPath id="p.0"><path d="m0 0l461.69815 0l0 126.902885l-461.69815 0l0 -126.902885z" clip-rule="nonzero"/></clipPath><g clip-path="url(#p.0)"><path fill="#000000" fill-opacity="0.0" d="m0 0l461.69815 0l0 126.902885l-461.69815 0z" fill-rule="evenodd"/><path fill="#cfe2f3" d="m59.047245 58.879265l0 0c0 -17.742691 14.383289 -32.125984 32.12598 -32.125984l0 0c8.52034 0 16.691711 3.3846931 22.716507 9.409485c6.024788 6.024788 9.409477 14.196159 9.409477 22.7165l0 0c0 17.742691 -14.383293 32.125984 -32.125984 32.125984l0 0c-17.742691 0 -32.12598 -14.383293 -32.12598 -32.125984z" fill-rule="evenodd"/><path stroke="#000000" stroke-width="1.0" stroke-linejoin="round" stroke-linecap="butt" d="m59.047245 58.879265l0 0c0 -17.742691 14.383289 -32.125984 32.12598 -32.125984l0 0c8.52034 0 16.691711 3.3846931 22.716507 9.409485c6.024788 6.024788 9.409477 14.196159 9.409477 22.7165l0 0c0 17.742691 -14.383293 32.125984 -32.125984 32.125984l0 0c-17.742691 0 -32.12598 -14.383293 -32.12598 -32.125984z" fill-rule="evenodd"/><path fill="#000000" d="m84.40985 65.79926l-1.640625 0l0 -10.453125q-0.59375 0.5625 -1.5625 1.140625q-0.953125 0.5625 -1.71875 0.84375l0 -1.59375q1.375 -0.640625 2.40625 -1.5625q1.03125 -0.921875 1.453125 -1.78125l1.0625 0l0 13.40625z" fill-rule="nonzero"/><path fill="#cfe2f3" d="m204.49606 58.879265l0 0c0 -17.742691 14.3832855 -32.125984 32.125977 -32.125984l0 0c8.520355 0 16.691711 3.3846931 22.716522 9.409485c6.0247803 6.024788 9.409454 14.196159 9.409454 22.7165l0 0c0 17.742691 -14.3832855 32.125984 -32.125977 32.125984l0 0c-17.742691 0 -32.125977 -14.383293 -32.125977 -32.125984z" fill-rule="evenodd"/><path stroke="#000000" stroke-width="1.0" stroke-linejoin="round" stroke-linecap="butt" d="m204.49606 58.879265l0 0c0 -17.742691 14.3832855 -32.125984 32.125977 -32.125984l0 0c8.520355 0 16.691711 3.3846931 22.716522 9.409485c6.0247803 6.024788 9.409454 14.196159 9.409454 22.7165l0 0c0 17.742691 -14.3832855 32.125984 -32.125977 32.125984l0 0c-17.742691 0 -32.125977 -14.383293 -32.125977 -32.125984z" fill-rule="evenodd"/><path fill="#000000" d="m232.29617 64.22114l0 1.578125l-8.828125 0q-0.015625 -0.59375 0.1875 -1.140625q0.34375 -0.90625 1.078125 -1.78125q0.75 -0.875 2.15625 -2.015625q2.171875 -1.78125 2.9375 -2.828125q0.765625 -1.046875 0.765625 -1.96875q0 -0.984375 -0.703125 -1.640625q-0.6875 -0.671875 -1.8125 -0.671875q-1.1875 0 -1.90625 0.71875q-0.703125 0.703125 -0.703125 1.953125l-1.6875 -0.171875q0.171875 -1.890625 1.296875 -2.875q1.140625 -0.984375 3.03125 -0.984375q1.921875 0 3.046875 1.0625q1.125 1.0625 1.125 2.640625q0 0.796875 -0.328125 1.578125q-0.328125 0.78125 -1.09375 1.640625q-0.75 0.84375 -2.53125 2.34375q-1.46875 1.234375 -1.890625 1.6875q-0.421875 0.4375 -0.6875 0.875l6.546875 0z" fill-rule="nonzero"/><path fill="#cfe2f3" d="m349.9449 58.879265l0 0c0 -17.742691 14.383301 -32.125984 32.125977 -32.125984l0 0c8.520355 0 16.691711 3.3846931 22.716492 9.409485c6.024811 6.024788 9.409485 14.196159 9.409485 22.7165l0 0c0 17.742691 -14.38327 32.125984 -32.125977 32.125984l0 0c-17.742676 0 -32.125977 -14.383293 -32.125977 -32.125984z" fill-rule="evenodd"/><path stroke="#000000" stroke-width="1.0" stroke-linejoin="round" stroke-linecap="butt" d="m349.9449 58.879265l0 0c0 -17.742691 14.383301 -32.125984 32.125977 -32.125984l0 0c8.520355 0 16.691711 3.3846931 22.716492 9.409485c6.024811 6.024788 9.409485 14.196159 9.409485 22.7165l0 0c0 17.742691 -14.38327 32.125984 -32.125977 32.125984l0 0c-17.742676 0 -32.125977 -14.383293 -32.125977 -32.125984z" fill-rule="evenodd"/><path fill="#000000" d="m369.13562 62.268013l1.640625 -0.21875q0.28125 1.40625 0.953125 2.015625q0.6875 0.609375 1.65625 0.609375q1.15625 0 1.953125 -0.796875q0.796875 -0.796875 0.796875 -1.984375q0 -1.125 -0.734375 -1.859375q-0.734375 -0.734375 -1.875 -0.734375q-0.46875 0 -1.15625 0.171875l0.1875 -1.4375q0.15625 0.015625 0.265625 0.015625q1.046875 0 1.875 -0.546875q0.84375 -0.546875 0.84375 -1.671875q0 -0.90625 -0.609375 -1.5q-0.609375 -0.59375 -1.578125 -0.59375q-0.953125 0 -1.59375 0.609375q-0.640625 0.59375 -0.8125 1.796875l-1.640625 -0.296875q0.296875 -1.640625 1.359375 -2.546875q1.0625 -0.90625 2.65625 -0.90625q1.09375 0 2.0 0.46875q0.921875 0.46875 1.40625 1.28125q0.5 0.8125 0.5 1.71875q0 0.859375 -0.46875 1.578125q-0.46875 0.703125 -1.375 1.125q1.1875 0.28125 1.84375 1.140625q0.65625 0.859375 0.65625 2.15625q0 1.734375 -1.28125 2.953125q-1.265625 1.21875 -3.21875 1.21875q-1.765625 0 -2.921875 -1.046875q-1.15625 -1.046875 -1.328125 -2.71875z" fill-rule="nonzero"/><path fill="#000000" fill-opacity="0.0" d="m123.29921 58.879265l81.19685 0" fill-rule="evenodd"/><path stroke="#000000" stroke-width="1.0" stroke-linejoin="round" stroke-linecap="butt" d="m123.29921 58.879265l75.19685 0" fill-rule="evenodd"/><path fill="#000000" stroke="#000000" stroke-width="1.0" stroke-linecap="butt" d="m198.49606 60.531l4.538101 -1.6517334l-4.538101 -1.6517334z" fill-rule="evenodd"/><path fill="#000000" fill-opacity="0.0" d="m268.74802 58.879265l81.19687 0" fill-rule="evenodd"/><path stroke="#000000" stroke-width="1.0" stroke-linejoin="round" stroke-linecap="butt" d="m268.74802 58.879265l75.19687 0" fill-rule="evenodd"/><path fill="#000000" stroke="#000000" stroke-width="1.0" stroke-linecap="butt" d="m343.9449 60.531l4.538086 -1.6517334l-4.538086 -1.6517334z" fill-rule="evenodd"/></g></svg>